<svg width="41" height="37" viewBox="0 0 41 37" fill="none" xmlns="http://www.w3.org/2000/svg">
<path d="M19 30.0625C27.5277 30.0625 34.4375 23.3346 34.4375 15.0313C34.4375 6.72793 27.5277 0 19 0C10.4723 0 3.5625 6.72793 3.5625 15.0313C3.5625 23.3346 10.4723 30.0625 19 30.0625ZM17.3523 7.03867V5.82461C17.3523 5.15977 17.9016 4.625 18.5844 4.625H19.4082C20.091 4.625 20.6402 5.15977 20.6402 5.82461V7.05312C21.7906 7.11094 22.9039 7.49395 23.8316 8.16602C24.2473 8.46231 24.2918 9.05488 23.9207 9.40176L22.7109 10.5219C22.4289 10.7893 22.0059 10.7965 21.6719 10.5941C21.2711 10.3484 20.8258 10.2256 20.3508 10.2256H17.4637C16.7957 10.2256 16.2539 10.8182 16.2539 11.548C16.2539 12.1406 16.625 12.6682 17.152 12.8199L21.7758 14.1713C23.6832 14.7277 25.0191 16.5127 25.0191 18.5145C25.0191 20.9715 23.0598 22.9588 20.6328 23.0238V24.2379C20.6328 24.9027 20.0836 25.4375 19.4008 25.4375H18.577C17.8941 25.4375 17.3449 24.9027 17.3449 24.2379V23.0094C16.1945 22.9516 15.0812 22.5686 14.1535 21.8965C13.7379 21.6002 13.6934 21.0076 14.0645 20.6607L15.2742 19.5406C15.5563 19.2732 15.9793 19.266 16.3133 19.4684C16.7141 19.7141 17.1594 19.8369 17.6344 19.8369H20.5215C21.1895 19.8369 21.7313 19.2443 21.7313 18.5145C21.7313 17.9219 21.3602 17.3943 20.8332 17.2426L16.2094 15.8912C14.302 15.3348 12.966 13.5498 12.966 11.548C12.9734 9.09102 14.9254 7.10371 17.3523 7.03867ZM35.625 25.4375H33.2129C31.7582 27.3164 29.9027 28.8846 27.7949 30.0625H32.5301C32.9234 30.0625 33.2426 30.3227 33.2426 30.6406V31.7969C33.2426 32.1148 32.9234 32.375 32.5301 32.375H5.4625C5.06914 32.375 4.75 32.1148 4.75 31.7969V30.6406C4.75 30.3227 5.06914 30.0625 5.4625 30.0625H10.1977C8.08984 28.8846 6.2418 27.3164 4.77969 25.4375H2.375C1.06133 25.4375 0 26.4709 0 27.75V34.6875C0 35.9666 1.06133 37 2.375 37H35.625C36.9387 37 38 35.9666 38 34.6875V27.75C38 26.4709 36.9387 25.4375 35.625 25.4375Z" fill="white"/>
<path d="M40.218 4.15928L40.2179 4.15943L32.5884 13.7604C32.4409 13.9459 32.2827 14.0014 32.1616 13.9992C32.0405 13.997 31.8845 13.936 31.7441 13.7453L24.4842 3.87783L24.4841 3.87768C24.2426 3.54967 24.2001 3.08068 24.3345 2.68236C24.473 2.27214 24.725 2.10595 24.9371 2.10975L39.8324 2.37635C40.0445 2.38014 40.29 2.55524 40.4128 2.97013C40.5321 3.37299 40.4718 3.84014 40.218 4.15928Z" fill="white" stroke="#27263C"/>
</svg>
