<svg width="39" height="37" viewBox="0 0 39 37" fill="none" xmlns="http://www.w3.org/2000/svg">
<path d="M17.512 30.2485C25.3719 30.2485 31.7405 24.0648 31.7405 16.4331C31.7405 8.80141 25.3719 2.61768 17.512 2.61768C9.65213 2.61768 3.2835 8.80141 3.2835 16.4331C3.2835 24.0648 9.65213 30.2485 17.512 30.2485ZM15.9934 9.08702V7.97116C15.9934 7.36009 16.4996 6.86858 17.1289 6.86858H17.8883C18.5176 6.86858 19.0238 7.36009 19.0238 7.97116V9.1003C20.0841 9.15344 21.1102 9.50547 21.9653 10.1232C22.3483 10.3955 22.3894 10.9401 22.0474 11.259L20.9323 12.2885C20.6724 12.5342 20.2825 12.5409 19.9746 12.3549C19.6053 12.1291 19.1948 12.0162 18.757 12.0162H16.096C15.4804 12.0162 14.981 12.5608 14.981 13.2317C14.981 13.7763 15.323 14.2612 15.8087 14.4006L20.0704 15.6427C21.8285 16.1541 23.0598 17.7947 23.0598 19.6346C23.0598 21.8929 21.2538 23.7194 19.017 23.7792V24.8951C19.017 25.5061 18.5108 25.9976 17.8814 25.9976H17.1221C16.4928 25.9976 15.9866 25.5061 15.9866 24.8951V23.7659C14.9263 23.7128 13.9002 23.3608 13.0451 22.743C12.662 22.4707 12.621 21.9261 12.963 21.6073L14.078 20.5777C14.338 20.332 14.7279 20.3253 15.0357 20.5113C15.4051 20.7372 15.8155 20.8501 16.2533 20.8501H18.9143C19.53 20.8501 20.0294 20.3054 20.0294 19.6346C20.0294 19.0899 19.6873 18.6051 19.2017 18.4656L14.9399 17.2235C13.1819 16.7121 11.9506 15.0715 11.9506 13.2317C11.9574 10.9734 13.7565 9.1468 15.9934 9.08702ZM32.835 25.9976H30.6118C29.2711 27.7246 27.5609 29.1659 25.6182 30.2485H29.9825C30.345 30.2485 30.6392 30.4877 30.6392 30.7799V31.8426C30.6392 32.1349 30.345 32.374 29.9825 32.374H5.03471C4.67215 32.374 4.378 32.1349 4.378 31.8426V30.7799C4.378 30.4877 4.67215 30.2485 5.03471 30.2485H9.39903C7.45629 29.1659 5.75297 27.7246 4.40537 25.9976H2.189C0.97821 25.9976 0 26.9475 0 28.1231V34.4995C0 35.6751 0.97821 36.6249 2.189 36.6249H32.835C34.0458 36.6249 35.024 35.6751 35.024 34.4995V28.1231C35.024 26.9475 34.0458 25.9976 32.835 25.9976Z" fill="white"/>
<path d="M23.1501 10.1458L23.1503 10.1456L29.8505 1.22324C29.8505 1.22319 29.8505 1.22314 29.8506 1.22309C29.9729 1.06039 30.103 1.01423 30.1976 1.01342C30.2922 1.01262 30.4231 1.05657 30.5483 1.21718C30.5483 1.21723 30.5484 1.21728 30.5484 1.21733L37.408 10.0248L37.4081 10.025C37.6257 10.3042 37.676 10.7142 37.5672 11.0688C37.4547 11.4354 37.2416 11.5715 37.0756 11.5729L23.5104 11.6879C23.3444 11.6893 23.1289 11.5568 23.0098 11.1922C22.8947 10.8395 22.9376 10.4286 23.1501 10.1458Z" fill="white" stroke="#27263C"/>
</svg>
